<svg width="1200" height="630" viewBox="0 0 1200 630" fill="none" xmlns="http://www.w3.org/2000/svg">
  <rect width="1200" height="630" fill="#050D0A"/>
  <path d="M0 0H1200V630H0V0Z" fill="url(#bg)"/>
  <circle cx="940" cy="120" r="220" fill="#FDAA3E" fill-opacity="0.18"/>
  <circle cx="150" cy="560" r="260" fill="#9AC7A9" fill-opacity="0.16"/>
  <g transform="translate(90 92)">
    <rect x="0" y="0" width="1020" height="446" rx="32" fill="#FFFFFF" fill-opacity="0.08" stroke="#FFFFFF" stroke-opacity="0.16"/>
    <g transform="translate(60 58)">
      <path d="M50 96C74 54 114 54 143 96C172 138 212 138 236 96C260 54 300 54 329 96C358 138 398 138 422 96" stroke="#FDAA3E" stroke-width="24" stroke-linecap="round"/>
      <text x="0" y="214" fill="#FFFFFF" font-family="Inter, Arial, sans-serif" font-size="92" font-weight="800" letter-spacing="0">Continuum</text>
      <text x="2" y="284" fill="#DCE8DC" font-family="Inter, Arial, sans-serif" font-size="34" font-weight="500">Build lasting habits, one day at a time.</text>
      <g transform="translate(0 340)">
        <rect width="192" height="56" rx="28" fill="#FDAA3E"/>
        <text x="96" y="37" text-anchor="middle" fill="#1A1A1A" font-family="Inter, Arial, sans-serif" font-size="22" font-weight="800">Track streaks</text>
      </g>
      <g transform="translate(220 340)">
        <rect width="176" height="56" rx="28" fill="#FFFFFF" fill-opacity="0.12"/>
        <text x="88" y="37" text-anchor="middle" fill="#FFFFFF" font-family="Inter, Arial, sans-serif" font-size="22" font-weight="700">Sync habits</text>
      </g>
    </g>
    <g transform="translate(700 58)">
      <rect x="0" y="0" width="250" height="330" rx="34" fill="#FAF7EF"/>
      <rect x="28" y="36" width="96" height="14" rx="7" fill="#1D241F" fill-opacity="0.22"/>
      <rect x="28" y="70" width="158" height="22" rx="11" fill="#1D241F" fill-opacity="0.9"/>
      <circle cx="125" cy="152" r="54" fill="none" stroke="#E8E0D3" stroke-width="12"/>
      <path d="M125 98A54 54 0 1 1 75 132" stroke="#FDAA3E" stroke-width="12" stroke-linecap="round"/>
      <text x="125" y="162" text-anchor="middle" fill="#1D241F" font-family="Inter, Arial, sans-serif" font-size="28" font-weight="800">72%</text>
      <rect x="28" y="232" width="194" height="24" rx="12" fill="#D8E8D8"/>
      <rect x="28" y="272" width="150" height="24" rx="12" fill="#F3D59D"/>
    </g>
  </g>
  <defs>
    <linearGradient id="bg" x1="0" y1="0" x2="1200" y2="630" gradientUnits="userSpaceOnUse">
      <stop stop-color="#050D0A"/>
      <stop offset="0.52" stop-color="#163328"/>
      <stop offset="1" stop-color="#3A2614"/>
    </linearGradient>
  </defs>
</svg>
